<?xml version="1.0" encoding="UTF-8" standalone="no"?>
<!DOCTYPE svg PUBLIC "-//W3C//DTD SVG 1.1//EN" "http://www.w3.org/Graphics/SVG/1.1/DTD/svg11.dtd">
<svg width="100%" height="100%" viewBox="0 0 128 128" version="1.1" xmlns="http://www.w3.org/2000/svg" xmlns:xlink="http://www.w3.org/1999/xlink" xml:space="preserve" xmlns:serif="http://www.serif.com/" style="fill-rule:evenodd;clip-rule:evenodd;stroke-linejoin:round;stroke-miterlimit:2;">
    <g transform="matrix(1.48463,0,0,1.48463,-9.01913e-05,17.1176)">
        <g>
            <path d="M79.244,60.834L45.932,60.834C43.618,60.826 41.361,60.114 39.461,58.792C37.561,57.471 36.108,55.602 35.293,53.435L26.699,53.435C24.56,53.423 22.431,53.161 20.353,52.655C18.113,52.067 15.959,51.19 13.945,50.045C12.483,49.204 11.113,48.212 9.858,47.085C9.088,46.386 8.308,45.605 7.609,44.834C6.499,43.565 5.509,42.196 4.651,40.744C3.508,38.754 2.631,36.623 2.043,34.404C1.506,32.33 1.244,30.196 1.264,28.054C1.276,25.917 1.537,23.789 2.043,21.713C2.331,20.634 2.684,19.574 3.101,18.538C2.049,20.366 1.264,22.335 0.771,24.386C-0.257,28.508 -0.257,32.82 0.771,36.942C1.331,39.15 2.209,41.265 3.379,43.22C4.225,44.661 5.194,46.026 6.274,47.301C6.969,48.104 7.72,48.856 8.523,49.552C9.763,50.679 11.136,51.652 12.61,52.449C14.593,53.602 16.725,54.477 18.946,55.049C21,55.555 23.105,55.817 25.22,55.83L33.743,55.83C34.541,57.974 35.972,59.823 37.847,61.132C39.722,62.442 41.952,63.148 44.238,63.157L77.201,63.157C78.958,63.155 80.69,62.74 82.256,61.943C83.822,61.147 85.179,59.993 86.217,58.574C84.163,59.993 81.739,60.778 79.244,60.834Z" style="fill:rgb(1,170,90);fill-rule:nonzero;"/>
            <path d="M79.172,48.502L69.009,48.502L58.532,28.054L58.532,48.502L48.324,48.502L48.324,7.543L58.532,7.543L58.532,27.982L69.009,7.543L79.172,7.543L68.749,27.982L79.172,48.502ZM79.809,0L45.86,0C44.257,0.012 42.722,0.654 41.589,1.789C40.455,2.923 39.813,4.458 39.801,6.063L39.801,38.35L26.358,38.35C24.557,38.342 22.788,37.88 21.214,37.005C19.671,36.1 18.384,34.816 17.476,33.274C16.589,31.703 16.126,29.929 16.132,28.126C16.142,26.325 16.601,24.555 17.467,22.978C18.375,21.436 19.662,20.151 21.205,19.247C22.775,18.367 24.549,17.915 26.349,17.937L26.349,7.686C24.615,7.682 22.887,7.893 21.205,8.314C19.407,8.798 17.679,9.51 16.06,10.431C14.875,11.108 13.766,11.91 12.753,12.825C12.105,13.402 11.492,14.016 10.916,14.664C10.006,15.668 9.204,16.765 8.523,17.937C7.592,19.551 6.881,21.283 6.408,23.085C5.98,24.768 5.766,26.497 5.772,28.233C5.772,29.969 5.985,31.698 6.408,33.381C6.888,35.193 7.599,36.935 8.523,38.565C9.217,39.742 10.018,40.853 10.916,41.883C11.495,42.514 12.109,43.113 12.753,43.677C13.764,44.595 14.873,45.398 16.06,46.072C19.179,47.904 22.732,48.865 26.349,48.852L39.792,48.852L39.792,50.332C39.804,51.936 40.446,53.471 41.58,54.606C42.713,55.74 44.248,56.383 45.851,56.395L79.809,56.395C81.412,56.383 82.946,55.74 84.08,54.606C85.213,53.471 85.855,51.936 85.867,50.332L85.867,6.386C85.896,5.566 85.761,4.75 85.471,3.983C85.181,3.216 84.741,2.515 84.177,1.921C83.613,1.327 82.936,0.85 82.186,0.521C81.436,0.191 80.628,0.014 79.809,0" style="fill:rgb(1,170,90);fill-rule:nonzero;"/>
        </g>
    </g>
</svg>
