<svg width="100%" height="100%" viewBox="0 0 5 5" version="1.1" xmlns="http://www.w3.org/2000/svg"
    xmlns:xlink="http://www.w3.org/1999/xlink" xml:space="preserve" xmlns:serif="http://www.serif.com/"
    style="fill-rule:evenodd;clip-rule:evenodd;stroke-linejoin:round;stroke-miterlimit:2;fill:currentColor;">
    <path d="M3.398,0.002C4.282,0.002 4.998,0.718 4.998,1.602L4.998,3.398C4.998,4.282 4.282,4.998 3.398,4.998L1.602,4.998C0.718,4.998 0.002,4.282 0.002,3.398L0.002,1.602C0.002,0.718 0.718,0.002 1.602,0.002L3.398,0.002ZM1.608,4.092L1.608,2.01C1.608,1.887 1.657,1.768 1.744,1.681C1.831,1.594 1.949,1.545 2.073,1.545L3.987,1.545L3.987,1.408C3.987,1.276 3.934,1.149 3.841,1.055C3.747,0.961 3.62,0.908 3.487,0.908L2.013,0.908C1.748,0.908 1.493,1.014 1.306,1.201C1.118,1.389 1.013,1.643 1.013,1.908L1.013,3.592C1.013,3.868 1.237,4.092 1.513,4.092L1.608,4.092ZM3.487,2.182L2.453,2.182C2.315,2.182 2.203,2.294 2.203,2.432L2.203,2.818L3.392,2.818L3.392,3.455L2.453,3.455C2.315,3.455 2.203,3.567 2.203,3.705L2.203,4.092L3.487,4.092C3.62,4.092 3.747,4.039 3.841,3.945C3.934,3.851 3.987,3.724 3.987,3.592L3.987,2.682C3.987,2.549 3.934,2.422 3.841,2.328C3.747,2.234 3.62,2.182 3.487,2.182Z" />
</svg>