<svg width="200" height="200" viewBox="0 0 200 200" fill="none" xmlns="http://www.w3.org/2000/svg">
<rect width="200" height="200" rx="32" fill="#F9C600"/>
<rect x="0.5" y="0.5" width="199" height="199" rx="31.5" stroke="#0B2330" stroke-opacity="0.1"/>
<path d="M49.2587 92.4705C43.7191 91.1796 40.862 88.9567 40.862 85.7996C40.862 82.5529 43.8484 80.0629 47.8738 80.0629C51.9854 80.0629 55.1012 82.7756 55.1012 86.3337V86.5997H60.7713V86.3327C60.7713 79.7959 55.2747 74.8592 47.96 74.8592C44.4541 74.8592 41.209 75.9717 38.8714 78.0162C36.4906 80.1083 35.193 82.9983 35.193 86.1564C35.193 89.1362 36.3182 91.6704 38.5254 93.6706C40.516 95.4502 43.2858 96.7844 46.8349 97.5845C52.8078 98.9641 55.8363 101.276 55.8363 104.478C55.8363 107.946 52.548 110.571 48.1767 110.571C43.676 110.571 40.2563 107.635 40.2563 103.767V103.5H34.5V103.767C34.5 110.615 40.3425 115.773 48.0463 115.773C51.7257 115.773 55.1444 114.616 57.6113 112.482C60.1214 110.303 61.5063 107.325 61.5063 103.988C61.5063 98.2516 57.3947 94.3831 49.2587 92.4705ZM81.0697 84.5098C76.6552 84.5098 72.716 86.5554 70.1628 90.1579V85.2212H64.7956V125.867H70.2059V110.391C72.7602 113.994 76.6552 116.039 81.1128 116.039C89.5095 116.039 95.8284 109.28 95.8284 100.297C95.7853 91.3136 89.4654 84.5087 81.0697 84.5087V84.5098ZM90.1584 101.452C89.7251 106.256 86.0036 110.124 81.3294 110.614C78.2998 110.925 75.4869 110.035 73.409 108.078C71.3311 106.121 70.1628 103.364 70.1628 100.296C70.1628 94.382 74.448 89.9351 80.1611 89.9351C83.1034 89.9351 85.7439 91.092 87.6483 93.2262C89.5516 95.3605 90.4612 98.2959 90.1584 101.453V101.452ZM162.09 85.2212V90.1579C159.536 86.5554 155.598 84.5541 151.14 84.5541C142.787 84.5541 136.468 91.1807 136.468 100.03C136.468 108.835 142.787 115.505 151.14 115.505C155.598 115.505 159.536 113.505 162.09 109.947V110.703C162.09 116.839 158.368 120.797 152.568 120.797C148.673 120.797 145.383 119.019 143.869 116.083L143.782 115.95H138.199L138.33 116.35C139.324 119.286 141.143 121.732 143.566 123.421C146.033 125.111 149.149 126 152.568 126C156.983 126 160.705 124.577 163.388 121.82C166.072 119.106 167.5 115.283 167.5 110.792V85.2201H162.09V85.2212ZM159.06 107.59C156.767 109.858 153.477 110.791 150.058 110.169C145.946 109.458 142.744 106.033 142.181 101.676C141.705 98.1618 142.744 94.8264 144.994 92.5138C146.856 90.6466 149.366 89.6238 152.136 89.6238C152.784 89.6238 153.39 89.6681 154.04 89.8022C158.152 90.4692 161.441 93.982 161.96 98.3402C162.436 101.942 161.398 105.321 159.06 107.59ZM130.54 74.1035C129.882 73.9502 129.197 73.9675 128.547 74.1537C127.897 74.34 127.303 74.6894 126.817 75.1706C125.864 76.149 125.475 77.5719 125.778 78.9958C126.081 80.4629 127.292 81.7085 128.721 82.0198C129.024 82.1085 129.327 82.1085 129.63 82.1085C130.669 82.1085 131.707 81.7085 132.443 80.9084C133.396 79.9288 133.785 78.506 133.482 77.0832C133.179 75.6604 132.01 74.4592 130.539 74.1035H130.54ZM126.946 109.947H122.272C118.939 109.947 116.949 107.634 116.949 103.766C116.949 99.9858 118.723 95.4492 122.358 89.9806L122.403 89.8908V88.3339L106.908 86.0656C106.908 84.7325 106.216 83.4427 105.09 82.8199C103.705 82.0198 102.19 82.0198 100.936 82.7756C99.7234 83.487 98.9873 84.8655 98.9873 86.2894C98.9845 87.0891 99.2135 87.8715 99.6453 88.5367C100.077 89.2019 100.692 89.7196 101.411 90.0238L96.6066 115.283H101.974L106.432 91.2693L114.785 92.7365C112.535 96.872 111.409 100.742 111.409 104.21C111.409 110.614 115.174 114.838 121.276 115.238V115.283H132.314V85.3099H126.903V109.947H126.946Z" fill="#0B2330"/>
</svg>
